<?xml version="1.0" standalone="no"?>
<!DOCTYPE svg PUBLIC "-//W3C//DTD SVG 20010904//EN"
 "http://www.w3.org/TR/2001/REC-SVG-20010904/DTD/svg10.dtd">
<svg version="1.0" xmlns="http://www.w3.org/2000/svg"
 width="512.000000pt" height="512.000000pt" viewBox="0 0 512.000000 512.000000"
 preserveAspectRatio="xMidYMid meet">

<g transform="translate(0.000000,512.000000) scale(0.100000,-0.100000)"
fill="#000000" stroke="none">
<path d="M973 4455 c-127 -64 -156 -222 -60 -332 73 -84 2979 -3197 3006
-3220 14 -13 50 -30 79 -39 44 -13 62 -14 101 -4 126 30 198 172 148 291 -9
21 -318 361 -787 865 -425 456 -785 842 -799 858 l-26 28 75 -7 c434 -38 794
-203 1118 -509 109 -104 144 -121 228 -114 128 11 218 142 184 269 -9 34 -31
64 -99 132 -285 293 -678 511 -1081 601 -63 14 -155 30 -205 37 -108 14 -350
17 -496 6 l-106 -8 -198 212 c-142 152 -194 214 -184 219 24 13 229 58 339 75
147 23 439 30 596 16 526 -49 1037 -256 1434 -581 132 -107 140 -113 189 -126
94 -24 192 19 239 106 34 65 29 161 -12 214 -60 80 -323 278 -531 401 -553
327 -1218 471 -1865 404 -232 -24 -547 -97 -711 -163 -12 -5 -61 41 -183 173
-134 144 -177 183 -216 200 -64 28 -115 26 -177 -4z"/>
<path d="M841 3709 c-130 -65 -358 -255 -392 -327 -31 -62 -24 -155 15 -211
36 -51 112 -91 175 -91 65 1 113 26 210 110 47 40 121 96 165 125 130 84 161
130 154 231 -7 113 -81 186 -197 192 -58 3 -73 0 -130 -29z"/>
<path d="M1515 3048 c-131 -47 -510 -351 -556 -444 -69 -144 28 -304 186 -304
73 0 98 14 217 121 96 86 182 152 318 241 77 52 109 106 109 183 1 145 -141
250 -274 203z"/>
<path d="M2120 2337 c-133 -48 -292 -158 -448 -311 -100 -97 -122 -135 -122
-211 0 -122 94 -215 218 -215 52 0 103 27 167 89 130 126 249 214 335 247 104
40 154 107 155 209 1 158 -145 250 -305 192z"/>
<path d="M2450 1369 c-59 -26 -96 -63 -128 -124 -72 -140 7 -324 159 -369 66
-20 92 -20 156 -1 110 33 187 138 187 255 -1 151 -111 260 -264 260 -44 0 -80
-7 -110 -21z"/>
</g>
</svg>
