<?xml version="1.0" standalone="no"?>
<!DOCTYPE svg PUBLIC "-//W3C//DTD SVG 20010904//EN"
 "http://www.w3.org/TR/2001/REC-SVG-20010904/DTD/svg10.dtd">
<svg version="1.0" xmlns="http://www.w3.org/2000/svg"
 width="512.000000pt" height="512.000000pt" viewBox="0 0 512.000000 512.000000"
 preserveAspectRatio="xMidYMid meet">

<g transform="translate(0.000000,512.000000) scale(0.100000,-0.100000)"
fill="#000000" stroke="none">
<path d="M0 2560 l0 -2170 2560 0 2560 0 0 2170 0 2170 -2560 0 -2560 0 0
-2170z m600 1720 l0 -150 -150 0 -150 0 0 150 0 150 150 0 150 0 0 -150z m600
0 l0 -150 -150 0 -150 0 0 150 0 150 150 0 150 0 0 -150z m600 0 l0 -150 -150
0 -150 0 0 150 0 150 150 0 150 0 0 -150z m3020 0 l0 -150 -1360 0 -1360 0 0
150 0 150 1360 0 1360 0 0 -150z m0 -2020 l0 -1570 -2260 0 -2260 0 0 1570 0
1570 2260 0 2260 0 0 -1570z"/>
<path d="M1514 3165 c-276 -71 -490 -248 -614 -506 -66 -139 -83 -220 -83
-394 0 -174 17 -255 83 -394 104 -216 286 -387 502 -471 209 -81 467 -81 676
0 157 61 319 187 418 326 58 80 119 211 146 309 31 115 31 345 0 460 -75 273
-268 503 -519 617 -179 81 -420 102 -609 53z m381 -290 c225 -57 412 -252 460
-480 69 -331 -135 -656 -465 -740 -97 -25 -262 -17 -358 17 -298 107 -471 415
-407 723 23 112 85 226 169 310 126 127 261 184 441 184 59 1 126 -5 160 -14z"/>
<path d="M1502 2497 l-102 -102 65 -65 65 -64 -65 -66 -65 -65 105 -105 105
-105 65 65 65 64 65 -64 65 -65 105 105 105 105 -65 65 -65 65 65 65 65 65
-105 105 -105 105 -65 -65 -65 -64 -63 62 c-34 34 -65 62 -67 62 -3 0 -51 -46
-108 -103z"/>
<path d="M3080 2870 l0 -150 720 0 720 0 0 150 0 150 -720 0 -720 0 0 -150z"/>
<path d="M3080 2270 l0 -150 720 0 720 0 0 150 0 150 -720 0 -720 0 0 -150z"/>
<path d="M3080 1670 l0 -150 395 0 395 0 0 150 0 150 -395 0 -395 0 0 -150z"/>
</g>
</svg>
