<?xml version="1.0" standalone="no"?>
<!DOCTYPE svg PUBLIC "-//W3C//DTD SVG 20010904//EN"
 "http://www.w3.org/TR/2001/REC-SVG-20010904/DTD/svg10.dtd">
<svg version="1.0" xmlns="http://www.w3.org/2000/svg"
 width="512.000000pt" height="512.000000pt" viewBox="0 0 512.000000 512.000000"
 preserveAspectRatio="xMidYMid meet">

<g transform="translate(0.000000,512.000000) scale(0.100000,-0.100000)"
fill="#000000" stroke="none">
<path d="M528 5105 c-83 -21 -148 -57 -217 -121 -69 -63 -124 -163 -141 -253
-13 -70 -13 -273 0 -342 26 -137 127 -271 252 -333 103 -52 149 -58 416 -54
217 3 242 6 293 26 125 50 232 157 280 280 31 78 40 354 15 452 -30 116 -104
217 -206 282 -106 67 -129 71 -395 74 -182 2 -254 0 -297 -11z m519 -331 c64
-47 73 -75 73 -214 0 -115 -2 -130 -22 -160 -50 -73 -57 -75 -283 -78 -230 -4
-254 1 -301 64 -27 35 -29 44 -32 152 -5 156 13 204 93 247 25 13 63 15 237
13 192 -3 209 -5 235 -24z"/>
<path d="M2120 5102 c-156 -41 -275 -153 -331 -313 -21 -57 -23 -82 -23 -229
0 -140 3 -174 21 -227 53 -159 178 -276 340 -318 84 -22 792 -22 876 0 162 42
283 155 337 316 27 80 38 261 21 369 -30 197 -167 354 -350 402 -57 14 -119
17 -446 17 -325 0 -389 -3 -445 -17z m836 -323 c26 -12 53 -36 66 -57 21 -33
23 -49 23 -162 0 -114 -2 -128 -24 -163 -12 -21 -41 -47 -62 -58 -38 -19 -56
-20 -407 -17 -366 3 -367 3 -400 26 -57 41 -67 72 -67 212 0 113 2 129 23 162
13 20 41 45 65 57 40 20 57 21 391 21 333 0 352 -1 392 -21z"/>
<path d="M4051 5104 c-167 -45 -304 -179 -346 -339 -21 -81 -21 -329 0 -410
43 -164 177 -297 341 -339 75 -19 461 -23 546 -5 170 36 317 179 363 354 20
80 20 310 0 390 -47 178 -197 321 -374 355 -84 16 -465 12 -530 -6z m506 -320
c19 -9 46 -33 61 -52 26 -35 27 -39 27 -173 0 -150 -5 -166 -69 -213 -26 -20
-41 -21 -246 -21 -243 0 -247 1 -297 75 -21 30 -23 45 -23 157 0 131 7 158 52
200 40 37 67 42 266 42 160 1 200 -2 229 -15z"/>
<path d="M545 3668 c-170 -32 -322 -177 -367 -347 -24 -92 -26 -626 -3 -715
45 -170 162 -296 324 -346 58 -18 94 -20 460 -20 299 0 408 4 446 14 164 43
289 167 339 335 23 79 24 648 0 736 -42 162 -186 300 -355 340 -51 12 -136 15
-429 14 -201 -1 -387 -6 -415 -11z m805 -330 c25 -13 55 -39 68 -58 23 -34 23
-36 20 -330 -4 -421 34 -390 -481 -390 -361 0 -364 0 -397 23 -18 12 -43 35
-54 50 -20 27 -21 42 -24 310 -3 277 -2 283 20 327 17 33 35 51 68 68 43 22
51 22 390 22 339 0 347 0 390 -22z"/>
<path d="M3738 3664 c-162 -39 -300 -168 -349 -325 -17 -54 -19 -95 -19 -378
0 -342 3 -369 57 -475 32 -64 125 -157 189 -189 109 -55 125 -57 555 -57 369
0 401 1 462 20 160 50 277 176 322 345 23 90 21 623 -3 716 -46 175 -198 316
-376 348 -92 17 -766 13 -838 -5z m822 -326 c33 -17 51 -35 68 -68 22 -44 23
-50 20 -327 -3 -268 -4 -283 -24 -310 -11 -15 -36 -38 -54 -51 l-34 -23 -376
3 -376 3 -29 23 c-63 49 -64 58 -65 373 0 281 0 287 23 320 12 19 42 44 67 57
43 22 51 22 390 22 339 0 347 0 390 -22z"/>
<path d="M2463 3185 c-194 -42 -347 -210 -373 -406 -5 -41 -10 -242 -10 -447
l0 -372 -41 30 c-52 37 -137 69 -214 81 -196 28 -401 -82 -490 -265 -69 -142
-68 -286 3 -429 32 -65 69 -106 385 -424 l350 -352 9 -108 c10 -121 35 -208
77 -274 43 -68 134 -147 209 -182 l67 -32 690 0 690 0 75 36 c125 61 198 140
251 274 l24 60 3 518 c2 333 -1 537 -8 574 -12 70 -58 169 -102 224 -61 77
-127 112 -531 285 -215 92 -404 176 -418 186 -54 37 -59 64 -59 325 0 280 -8
343 -56 441 -63 129 -182 223 -325 257 -77 18 -124 18 -206 0z m146 -315 c39
-11 88 -53 104 -90 7 -15 13 -139 17 -320 l5 -295 37 -78 c44 -91 127 -181
204 -220 27 -13 215 -96 418 -183 228 -97 382 -169 403 -187 18 -16 37 -45 43
-65 6 -23 10 -220 10 -510 0 -521 1 -513 -63 -569 -27 -23 -49 -33 -89 -38
-29 -3 -305 -5 -613 -3 -539 3 -561 4 -594 23 -62 37 -74 62 -87 199 -10 110
-16 134 -49 203 -36 74 -55 96 -385 428 -288 289 -350 357 -360 390 -33 114
79 225 195 194 32 -9 71 -42 195 -164 86 -85 168 -159 184 -164 71 -28 152 -2
194 62 l27 41 5 625 c4 448 8 632 17 646 18 32 58 65 89 75 40 11 54 12 93 0z"/>
</g>
</svg>
